<mxfile host="app.diagrams.net" modified="2024-01-25T18:07:43.599Z" agent="Mozilla/5.0 (Windows NT 10.0; Win64; x64) AppleWebKit/537.36 (KHTML, like Gecko) Chrome/120.0.0.0 Safari/537.36" version="23.0.2" etag="bXE4eOqq0OXUJMI-nGXX" type="github">
  <diagram name="Page-1" id="Jp62j135DlmDTP3GWr1k">
    <mxGraphModel>
      <root>
        <mxCell id="0" />
        <mxCell id="1" parent="0" />
      </root>
    </mxGraphModel>
  </diagram>
</mxfile>
